<svg xmlns="http://www.w3.org/2000/svg" xmlns:xlink="http://www.w3.org/1999/xlink" width="34" height="34" viewBox="0 0 34 34">
  <defs>
    <clipPath id="clip-path">
      <rect id="Rectangle_34" data-name="Rectangle 34" width="34" height="34" transform="translate(4141 7824)" fill="#fff" stroke="#707070" stroke-width="1"/>
    </clipPath>
  </defs>
  <g id="delete" transform="translate(-4141 -7824)" clip-path="url(#clip-path)">
    <g id="delete-button_1_" data-name="delete-button (1)" transform="translate(4104.118 7830.81)">
      <g id="Group_34" data-name="Group 34" transform="translate(46.155)">
        <path id="Path_31" data-name="Path 31" d="M60.257,2.433H57.1a2.748,2.748,0,0,0-5.46,0H48.475a2.323,2.323,0,0,0-2.32,2.32v.119a2.322,2.322,0,0,0,1.466,2.155v10.96a2.323,2.323,0,0,0,2.32,2.32h8.85a2.323,2.323,0,0,0,2.32-2.32V7.027a2.322,2.322,0,0,0,1.466-2.155V4.753A2.323,2.323,0,0,0,60.257,2.433ZM54.366,1.1a1.651,1.651,0,0,1,1.618,1.333H52.748A1.651,1.651,0,0,1,54.366,1.1ZM60.01,17.987a1.221,1.221,0,0,1-1.22,1.22h-8.85a1.221,1.221,0,0,1-1.22-1.22V7.192H60.01ZM61.476,4.872a1.221,1.221,0,0,1-1.22,1.22H48.475a1.221,1.221,0,0,1-1.22-1.22V4.753a1.221,1.221,0,0,1,1.22-1.22H60.257a1.221,1.221,0,0,1,1.22,1.22v.119Z" transform="translate(-46.155)" fill="#f34336"/>
        <path id="Path_32" data-name="Path 32" d="M158.625,256.865a.55.55,0,0,0,.55-.55v-6.194a.55.55,0,1,0-1.1,0v6.194A.55.55,0,0,0,158.625,256.865Z" transform="translate(-153.364 -239.066)" fill="#f34336"/>
        <path id="Path_33" data-name="Path 33" d="M228.7,256.865a.55.55,0,0,0,.55-.55v-6.194a.55.55,0,1,0-1.1,0v6.194A.55.55,0,0,0,228.7,256.865Z" transform="translate(-220.484 -239.066)" fill="#f34336"/>
        <path id="Path_34" data-name="Path 34" d="M298.764,256.865a.55.55,0,0,0,.55-.55v-6.194a.55.55,0,1,0-1.1,0v6.194A.55.55,0,0,0,298.764,256.865Z" transform="translate(-287.604 -239.066)" fill="#f34336"/>
      </g>
    </g>
  </g>
</svg>
